<?xml version="1.0" standalone="no"?><!DOCTYPE svg PUBLIC "-//W3C//DTD SVG 1.1//EN" "http://www.w3.org/Graphics/SVG/1.1/DTD/svg11.dtd"><svg t="1524664524625" class="icon" style="" viewBox="0 0 1024 1024" version="1.1" xmlns="http://www.w3.org/2000/svg" p-id="1729" xmlns:xlink="http://www.w3.org/1999/xlink" width="200" height="200"><defs><style type="text/css"></style></defs><path d="M494.8 804.8c-3.3 0-6.6-1-9.6-3l-114.4-77.9c-38.4-26.1-70.1-60.6-91.6-99.7-21.5-39-32.9-82.7-32.9-126.3V363.3c0-25.3 17.6-47.7 43.9-55.8l0.4-0.1 57.6-21.5c27.5-10.3 53.2-23.8 76.2-40.2 7.7-5.4 18.3-3.6 23.7 4 5.4 7.6 3.6 18.3-4 23.7-25.4 18.1-53.7 33-84 44.3l-59.3 22.1-0.9 0.2c-11.5 3.7-19.5 13.2-19.5 23.1v134.7c0 37.9 9.9 75.9 28.7 109.9 19 34.5 47 64.9 81 88l114.4 77.9c7.8 5.3 9.8 15.9 4.5 23.6-3.4 5-8.8 7.6-14.2 7.6z" fill="#F21D40" p-id="1730"></path><path d="M511.3 105.4c1.7 0 3.3 0.5 4.3 1.2l1.1 0.8 1.1 0.8 89.3 63.2C644.7 198 686 219.7 730 236.2l84.8 31.7 1.2 0.5 1.3 0.4c17.4 5.5 29.1 19.1 29.1 34V498c0 27.9-3.6 55.7-10.7 82.8-7 26.8-17.5 53-31.1 77.7-13.7 24.9-30.6 48.4-50.2 69.8-20 21.8-42.9 41.6-68 58.7L519.1 901c-2.1 1.4-4.8 2.2-7.8 2.2s-5.7-0.8-7.8-2.2L336.4 787.1c-25.1-17.1-48-36.9-68-58.7-19.6-21.4-36.5-44.9-50.2-69.8-13.6-24.7-24.1-50.9-31.1-77.7-7.1-27.1-10.7-55-10.7-82.8V302.7c0-14.9 11.7-28.5 29.1-34l1.3-0.4 1.2-0.5 84.8-31.7c44-16.4 85.3-38.2 122.8-64.8l89.4-63.2 1.1-0.8 1.1-0.8c0.8-0.7 2.4-1.1 4.1-1.1m0-50c-12.6 0-25.2 4-35.3 12l-89.4 63.2c-34.1 24.1-71.6 43.8-111.5 58.8L190.4 221c-38.4 12.1-64.1 44.8-64.1 81.7V498c0 130 67.4 252.4 181.9 330.4l167.2 113.9c10.6 7.2 23.3 10.9 35.9 10.9s25.3-3.6 35.9-10.9l167.2-113.9C828.9 750.4 896.3 628 896.3 498V302.7c0-36.8-25.7-69.6-64.1-81.7l-84.8-31.7c-39.9-14.9-77.4-34.7-111.5-58.8l-89.3-63.2c-10.1-7.9-22.7-11.9-35.3-11.9z" fill="#1A1A1A" p-id="1731"></path></svg>